<?xml version="1.0" encoding="UTF-8" standalone="no"?>
<svg width="39px" height="41px" viewBox="0 0 39 41" version="1.1" xmlns="http://www.w3.org/2000/svg" xmlns:xlink="http://www.w3.org/1999/xlink">
    <!-- Generator: sketchtool 3.8.3 (29802) - http://www.bohemiancoding.com/sketch -->
    <title>97445D19-9758-4E2C-8C63-E23051385225</title>
    <desc>Created with sketchtool.</desc>
    <defs></defs>
    <g id="Page-1" stroke="none" stroke-width="1" fill="none" fill-rule="evenodd">
        <g id="rvbar_v2.1" transform="translate(-1157.000000, -2800.000000)">
            <g id="Group-19" transform="translate(117.000000, 2355.000000)">
                <g id="Group-13" transform="translate(1040.000000, 445.000000)">
                    <g id="instagram_icon_violet">
                        <ellipse id="Oval-11-Copy" fill="#FFFFFF" cx="20.1724138" cy="20.5" rx="14.7931034" ry="15.0333333"></ellipse>
                        <path d="M0,20.0994835 C0,8.99884473 8.59514456,0 19.1977939,0 C29.8004432,0 38.3955877,8.99884473 38.3955877,20.0994835 C38.3955877,31.2001223 29.8004432,40.198967 19.1977939,40.198967 C8.59514456,40.198967 0,31.2001223 0,20.0994835 Z M27.4476195,29.3797338 C28.1919205,29.2194314 28.8001134,28.5893134 28.9455904,27.8295274 C28.9612051,27.7473955 28.9726559,27.6639432 28.9859284,27.5815472 L28.9859284,12.7819611 C28.9731764,12.7008856 28.9622461,12.619546 28.9466314,12.5387345 C28.7871011,11.709757 28.1133265,11.0664345 27.2860073,10.9515555 C27.2516549,10.947066 27.2180833,10.9394074 27.1842515,10.9333333 L12.5602976,10.9333333 C12.4720745,10.9494428 12.383331,10.9615909 12.2964091,10.9816617 C11.4888685,11.1683732 10.8913457,11.8283333 10.7763174,12.6586313 C10.7716329,12.693227 10.7646063,12.7275587 10.7586207,12.7621544 L10.7586207,27.6021462 C10.7752764,27.6961621 10.7885489,27.7909703 10.8093685,27.884458 C10.9878966,28.6857062 11.6619315,29.3068451 12.4637467,29.4114246 C12.5025232,29.4161782 12.54156,29.4238368 12.5803365,29.430175 L27.1642126,29.430175 C27.2589418,29.4138014 27.3539313,29.4003328 27.4476195,29.3797338 Z M12.7304979,18.4831293 C12.7304979,21.2204189 12.7302377,23.9577085 12.7307582,26.6949981 C12.7307582,27.0887558 13.0667346,27.4273188 13.4547601,27.4273188 C17.7321488,27.4275829 22.0092773,27.4275829 26.286666,27.4273188 C26.6783349,27.4273188 27.0124897,27.089284 27.0124897,26.6926213 C27.0127499,23.9585008 27.0124897,21.2246443 27.0124897,18.4907879 L27.0124897,18.4340086 L25.2724908,18.4340086 C25.5181622,19.2307672 25.5936333,20.0412584 25.4973426,20.867331 C25.4005314,21.6936676 25.1382043,22.4626968 24.7108819,23.1728339 C24.2832991,23.8837634 23.728977,24.4726834 23.0502578,24.9414426 C21.2910008,26.1573115 18.9748193,26.2642678 17.108081,25.2010427 C16.1644322,24.6641484 15.4235144,23.9154541 14.9069278,22.9507345 C14.1363421,21.5111816 14.0132461,20.0003245 14.4652919,18.4326882 C13.8880682,18.4332163 13.3131868,18.4332163 12.7304979,18.4332163 L12.7304979,18.4831293 Z M16.179006,20.1249749 C16.1498585,22.2221111 17.8042367,23.8845557 19.7875648,23.9278664 C21.8513085,23.9727616 23.5205207,22.2994894 23.5639816,20.2644142 C23.6084836,18.1656935 21.9403124,16.4322088 19.8724047,16.4335292 C17.8508206,16.4322088 16.2073727,18.0827693 16.179006,20.1249749 Z M26.3119098,15.6771764 C26.6978533,15.6674051 27.0122294,15.3317471 27.0122294,14.9395739 C27.0124897,14.3556716 27.0124897,13.7715052 27.0122294,13.1876029 C27.0122294,12.7687567 26.6856218,12.4354755 26.2733935,12.4352114 C25.6995531,12.4349473 25.1257126,12.4346832 24.5516119,12.4352114 C24.1404246,12.4357396 23.812776,12.769813 23.8125157,13.1886593 C23.8122555,13.7675438 23.810694,14.3464284 23.8145977,14.9255771 C23.8151182,15.0119345 23.8312534,15.1017249 23.8583189,15.1835927 C23.9613759,15.4917854 24.239578,15.6808736 24.5802388,15.6824582 C24.8571396,15.6829863 25.1340404,15.6821941 25.4112015,15.6821941 C25.7110038,15.6787609 26.0118472,15.6845709 26.3119098,15.6771764 Z" id="Combined-Shape" fill="#B25097"></path>
                    </g>
                </g>
            </g>
        </g>
    </g>
</svg>