<?xml version="1.0" encoding="UTF-8" standalone="no"?>
<svg width="71px" height="87px" viewBox="0 0 71 87" version="1.1" xmlns="http://www.w3.org/2000/svg" xmlns:xlink="http://www.w3.org/1999/xlink">
    <!-- Generator: sketchtool 3.8.3 (29802) - http://www.bohemiancoding.com/sketch -->
    <title>BEAA24D6-4D34-4831-BCA9-3B52AD2E7DA7</title>
    <desc>Created with sketchtool.</desc>
    <defs>
        <path d="M2.45464386,2.3216496 L3.73534014,2.3216496 C4.30549738,2.3216496 4.71704607,2.77170099 4.71704607,3.36406389 C4.71704607,3.95797673 4.30549738,4.40259599 3.73534014,4.40259599 L2.45464386,4.40259599 L2.45464386,2.3216496 L2.45464386,2.3216496 Z M0.647897379,10.3353704 L2.00372193,10.3353704 C2.24873048,10.3353704 2.45464386,10.1423149 2.45464386,9.89447537 L2.45464386,6.66558299 L3.83815614,6.66558299 C5.67426207,6.66558299 6.97791559,5.28625179 6.97791559,3.36406389 C6.97791559,1.44715019 5.66452303,0.0640947222 3.83815614,0.0640947222 L0.647897379,0.0640947222 C0.345566897,0.0640947222 0.190437517,0.249855926 0.190437517,0.494125463 L0.190437517,9.89447537 C0.190437517,10.1423149 0.39954869,10.3353704 0.647897379,10.3353704 L0.647897379,10.3353704 Z" id="path-1"></path>
        <path d="M4.75973959,4.29132364 L3.35159834,4.29132364 C2.83389352,4.29132364 2.53490317,3.97054519 2.53490317,3.45314127 C2.53490317,2.93372096 2.83389352,2.61682102 3.35159834,2.61682102 L4.75973959,2.61682102 L4.75973959,4.29132364 L4.75973959,4.29132364 Z M4.75973959,8.35824414 L3.23236303,8.35824414 C2.71785931,8.35824414 2.40578979,8.01015077 2.40578979,7.44541497 C2.40578979,6.88781549 2.71785931,6.55431065 3.23236303,6.55431065 L4.75973959,6.55431065 L4.75973959,8.35824414 L4.75973959,8.35824414 Z M3.20787641,0.353679753 C1.4078069,0.353679753 0.272365241,1.47787716 0.272365241,3.24177302 C0.272365241,4.14917006 0.571355586,4.78327846 1.28189462,5.35903645 C0.468400552,5.93851503 0.144920276,6.5707613 0.144920276,7.60929707 C0.144920276,9.43697179 1.26714703,10.6232475 3.01671393,10.6232475 L6.57149462,10.6232475 C6.81650317,10.6232475 7.02227752,10.4391942 7.02227752,10.1859225 L7.02227752,0.787434753 C7.02227752,0.543165216 6.86533738,0.353679753 6.57149462,0.353679753 L3.20787641,0.353679753 L3.20787641,0.353679753 Z" id="path-3"></path>
        <path d="M3.78931862,4.69761315 L2.51026759,4.69761315 L2.51026759,2.61682102 L3.78931862,2.61682102 C4.35945931,2.61682102 4.7711669,3.06858028 4.7711669,3.65535312 C4.7711669,4.24756176 4.35945931,4.69761315 3.78931862,4.69761315 L3.78931862,4.69761315 Z M3.89392552,0.353679753 L0.698515862,0.353679753 C0.398135172,0.353679753 0.246057931,0.543165216 0.246057931,0.787434753 L0.246057931,10.1859225 C0.246057931,10.4391942 0.453517241,10.6232475 0.698515862,10.6232475 L2.05602207,10.6232475 C2.3058869,10.6232475 2.51026759,10.4391942 2.51026759,10.1859225 L2.51026759,6.95889228 L3.89392552,6.95889228 C5.7283531,6.95889228 7.03507862,5.57397469 7.03507862,3.65535312 C7.03507862,1.73673522 5.71375448,0.353679753 3.89392552,0.353679753 L3.89392552,0.353679753 Z" id="path-5"></path>
        <path d="M2.94310179,7.08475315 C2.85656276,7.48933478 2.64745159,8.07952336 1.94832,8.07952336 L1.57419807,8.07952336 C1.30303448,8.07952336 1.1903371,8.35467414 1.1903371,8.58622096 L1.1903371,9.82883071 C1.1903371,10.0985494 1.31611034,10.3353704 1.57419807,10.3353704 L2.44167724,10.3353704 C3.61788579,10.3353704 4.36599062,9.43340546 4.71715531,8.52600475 L7.74254566,0.563340123 C7.78164083,0.481399074 7.79472,0.397441636 7.79472,0.335521235 C7.79472,0.133309383 7.65280883,0.0640947222 7.41906869,0.0640947222 L5.81489545,0.0640947222 C5.43937986,0.0640947222 5.36411255,0.218816759 5.27256497,0.494125463 L4.0703371,4.25501028 L2.71604193,0.494125463 C2.60988579,0.218816759 2.54296386,0.0640947222 2.16717352,0.0640947222 L0.592495448,0.0640947222 C0.362095448,0.0640947222 0.203625931,0.133309383 0.203625931,0.335521235 C0.203625931,0.397441636 0.218373517,0.481399074 0.255936,0.563340123 L2.94310179,7.08475315 L2.94310179,7.08475315 Z" id="path-7"></path>
        <path d="M5.17138759,5.35903645 L7.58936276,0.858511543 C7.6397131,0.770984105 7.66599724,0.687026667 7.66599724,0.626968395 C7.66599724,0.437482932 7.50087724,0.353679753 7.26574345,0.353679753 L5.6274869,0.353679753 C5.24818759,0.353679753 5.19588414,0.52501037 5.07998897,0.787434753 L3.94328276,3.25449941 L2.79631448,0.787434753 C2.664,0.52501037 2.62308414,0.353679753 2.24759172,0.353679753 L0.634924138,0.353679753 C0.401445517,0.353679753 0.236590345,0.437482932 0.236590345,0.626968395 C0.236590345,0.687026667 0.244502069,0.770984105 0.295448276,0.858511543 L2.71464828,5.35903645 L0.128606897,10.11857 C0.0779917241,10.2059432 0.0534951724,10.2897427 0.0534951724,10.3498046 C0.0534951724,10.5301337 0.236590345,10.6232475 0.463646897,10.6232475 L2.01702621,10.6232475 C2.39602759,10.6232475 2.49745655,10.4519169 2.62308414,10.1859225 L3.94328276,7.46372775 L5.24818759,10.1859225 C5.37732414,10.4519169 5.48014345,10.6232475 5.85593379,10.6232475 L7.4371531,10.6232475 C7.66599724,10.6232475 7.8374069,10.5301337 7.8374069,10.3608231 C7.8374069,10.2897427 7.80973241,10.2059432 7.75908414,10.11857 L5.17138759,5.35903645 L5.17138759,5.35903645 Z" id="path-9"></path>
        <path d="M0.775481379,10.3353704 L1.92552828,10.3353704 C2.23577379,10.3353704 2.38937379,10.1550376 2.49553655,9.97098429 L5.24822069,4.73594657 L5.24822069,9.89447537 C5.24822069,10.1423149 5.44230621,10.3353704 5.68425931,10.3353704 L7.06152828,10.3353704 C7.30305103,10.3353704 7.51047724,10.1423149 7.51047724,9.89447537 L7.51047724,0.494125463 C7.51047724,0.249855926 7.35535448,0.0640947222 7.06152828,0.0640947222 L5.92108138,0.0640947222 C5.61067034,0.0640947222 5.45554759,0.229835278 5.35272828,0.424910802 L2.58528,5.65979426 L2.58528,0.494125463 C2.58528,0.249855926 2.3779531,0.0640947222 2.13282207,0.0640947222 L0.775481379,0.0640947222 C0.532137931,0.0640947222 0.323023448,0.249855926 0.323023448,0.494125463 L0.323023448,9.89447537 C0.323023448,10.1423149 0.476325517,10.3353704 0.775481379,10.3353704 L0.775481379,10.3353704 Z" id="path-11"></path>
        <path d="M5.87786814,2.60037037 C6.14917076,2.60037037 6.26520497,2.32894386 6.26520497,2.09739704 L6.26520497,0.858511543 C6.26520497,0.581498642 6.13442317,0.353679753 5.87786814,0.353679753 L0.460962207,0.353679753 C0.255187862,0.353679753 0.0118510345,0.543165216 0.0118510345,0.787434753 L0.0118510345,10.1859225 C0.0118510345,10.4391942 0.227503448,10.6232475 0.460962207,10.6232475 L5.87786814,10.6232475 C6.12468414,10.6232475 6.26520497,10.3899965 6.26520497,10.11857 L6.26520497,8.87766812 C6.26520497,8.62982858 6.12468414,8.37112478 5.87786814,8.37112478 L2.27272055,8.37112478 L2.27272055,6.5707613 L5.29616441,6.5707613 C5.5545269,6.5707613 5.68197186,6.30647111 5.68197186,6.06980802 L5.68197186,4.82161188 C5.68197186,4.53900892 5.56593766,4.32034642 5.29616441,4.32034642 L2.27272055,4.32034642 L2.27272055,2.60037037 L5.87786814,2.60037037 L5.87786814,2.60037037 Z" id="path-13"></path>
        <path d="M4.73434593,4.21667685 L7.57191062,0.481399074 C7.63564138,0.397441636 7.67000276,0.320932716 7.67000276,0.249855926 C7.67000276,0.133309383 7.58331807,0.0640947222 7.38575338,0.0640947222 L5.48745931,0.0640947222 C5.19027641,0.0640947222 5.11166566,0.0640947222 4.81114593,0.461382099 L2.45051917,3.6974108 L2.45051917,0.494125463 C2.45051917,0.249855926 2.29371807,0.0640947222 1.99152662,0.0640947222 L0.665197241,0.0640947222 C0.366206897,0.0640947222 0.212745931,0.249855926 0.212745931,0.494125463 L0.212745931,9.89447537 C0.212745931,10.1423149 0.416709517,10.3353704 0.665197241,10.3353704 L1.99152662,10.3353704 C2.24307641,10.3353704 2.45051917,10.1423149 2.45051917,9.89447537 L2.45051917,7.11020225 L3.22172028,6.11900204 L5.12474483,9.89447537 C5.21448497,10.0839608 5.34707421,10.3353704 5.7586229,10.3353704 L7.44112883,10.3353704 C7.57191062,10.3353704 7.80397241,10.3353704 7.80397241,10.1167079 C7.80397241,10.0420611 7.776,9.94009938 7.69754483,9.79779154 L4.73434593,4.21667685 L4.73434593,4.21667685 Z" id="path-15"></path>
        <path d="M3.79137103,4.6180521 L2.51373683,4.6180521 L2.51373683,2.54113849 L3.79137103,2.54113849 C4.36138924,2.54113849 4.77307697,2.99088136 4.77307697,3.57765787 C4.77307697,4.17172497 4.36138924,4.6180521 3.79137103,4.6180521 L3.79137103,4.6180521 Z M3.89432938,0.277842963 L0.697390345,0.277842963 C0.399929379,0.277842963 0.246468414,0.465466296 0.246468414,0.707873704 L0.246468414,10.113655 C0.246468414,10.3596318 0.455579586,10.5453947 0.697390345,10.5453947 L2.05808441,10.5453947 C2.30142455,10.5453947 2.51373683,10.3596318 2.51373683,10.113655 L2.51373683,6.88119336 L3.89432938,6.88119336 C5.73057103,6.88119336 7.03729655,5.50000003 7.03729655,3.57765787 C7.03729655,1.66648481 5.71554538,0.277842963 3.89432938,0.277842963 L3.89432938,0.277842963 Z" id="path-17"></path>
        <path d="M3.89046952,8.28256344 L2.45464386,8.28256344 L2.45464386,6.20875522 L3.89046952,6.20875522 C4.45728662,6.20875522 4.80692193,6.65151235 4.80692193,7.24728842 C4.80692193,7.83577023 4.45728662,8.28256344 3.89046952,8.28256344 L3.89046952,8.28256344 Z M3.99008772,3.94033608 L2.45464386,3.94033608 L2.45464386,2.52810358 L6.14146097,2.52810358 C6.41262786,2.52810358 6.52699366,2.2549692 6.52699366,2.02171818 L6.52699366,0.784382623 C6.52699366,0.509077593 6.39954869,0.277842963 6.14146097,0.277842963 L0.647897379,0.277842963 C0.345566897,0.277842963 0.190437517,0.465466296 0.190437517,0.707873704 L0.190437517,10.113655 C0.190437517,10.3596318 0.39954869,10.5453947 0.647897379,10.5453947 L3.99008772,10.5453947 C5.93401821,10.5453947 7.07099255,9.16264814 7.07099255,7.24728842 C7.07099255,5.3271158 5.91774124,3.94033608 3.99008772,3.94033608 L3.99008772,3.94033608 Z" id="path-19"></path>
        <path d="M8.65126841,7.73288077 C8.20855614,7.8585837 7.78866207,7.76205414 7.40967062,7.3903738 C7.03234759,7.02226346 6.75617545,6.62513034 6.957216,5.69771265 C7.15965352,4.76827858 6.12076469,3.97758235 5.81704386,5.55555907 C5.51151228,7.14067213 6.35116469,7.67281883 6.880416,8.06638194 C7.40967062,8.46351506 7.64007062,9.02654667 6.880416,9.02654667 C6.12076469,9.02654667 5.27137324,8.90084373 4.66532193,7.78936904 C3.85015614,6.29891975 4.42685131,4.54061395 4.92827917,3.8079596 C5.43805241,3.07188951 6.04410372,2.33753096 7.10747917,1.88933802 C8.16765352,1.43928664 8.09905986,0.992805247 7.84097545,0.506436821 C7.61391228,0.0745439506 6.65335614,0.44808642 5.7892171,1.06931417 C4.92827917,1.6925583 3.57412303,2.79316873 3.17217401,4.57521944 C2.69203465,6.71979778 3.36166841,7.91879623 3.69015724,8.43806596 C4.09363531,9.05944796 4.65224276,9.89204395 6.02114648,10.3804288 C7.18093903,10.8050274 7.35916469,10.693755 6.98003421,11.262373 C6.60271448,11.8236968 5.93947697,12.8603704 6.67951448,12.9514678 C7.10260966,13.002524 7.5615989,12.0532235 7.78866207,11.9694203 C7.81815724,11.9529734 7.84751338,11.9475412 7.88007062,11.9329527 C8.01906207,12.1679116 8.19060745,12.3738477 8.38817545,12.5141392 C8.38984386,12.6235494 8.37996579,12.7584087 8.37996579,12.9132887 C8.37996579,13.4871845 7.92264497,13.7150034 7.47992938,13.5910047 C6.864,13.4306963 6.30539255,13.3777743 5.00827697,13.83155 C3.85989517,14.2269752 3.78156579,14.3564061 3.57899255,13.9937242 C3.376416,13.6237517 2.9369045,12.7292353 3.0905045,12.2225377 C3.10191294,12.1679116 3.10845219,12.1370267 3.10191294,12.1059912 C3.23102599,11.963834 3.22768684,11.805384 3.0333216,11.7488957 C3.0333216,11.7488957 3.18539123,11.6705247 3.28987829,11.2550788 C3.40090593,10.8414987 3.33412303,10.7905968 3.4368,10.7102057 C3.530016,10.6264025 3.97926952,10.5044238 4.24709628,10.3476817 C4.51825986,10.1855075 4.46608552,9.6224759 3.96619034,9.75190676 C3.46462676,9.89204395 3.12820866,10.1817832 3.06754792,10.1600584 C3.01384353,10.1271571 2.7737045,9.7810838 2.70831294,9.73359398 C2.64292171,9.68439997 2.33586074,9.13781901 2.21328695,8.85350818 C2.08918246,8.57292528 1.94546086,8.1065775 1.65467818,8.33610426 C1.36862599,8.57292528 1.40799989,8.75139222 1.57453903,9.0867592 C1.74608706,9.42942043 1.92584342,9.86286691 1.82455647,9.82655355 C1.72326952,9.79194438 1.67276524,9.7117112 1.41787829,9.46387167 C1.19888706,9.25808981 0.886817545,8.50184849 0.527582566,8.68031543 C0.303721754,8.79329565 0.275895658,9.22332639 0.645147807,9.6224759 C0.988243531,9.99772623 1.24313048,10.3768588 1.25273048,10.4078943 C1.26914781,10.4442113 0.947339255,10.3368175 0.886817545,10.2984877 C0.828104276,10.2565843 0.39680011,9.87760969 0.215513048,9.89204395 C0.0342260855,9.90477034 -0.155408706,10.2565843 0.292313048,10.6264025 C0.615791338,10.8942627 0.842852193,11.0564369 1.10413903,11.1857098 C1.21697379,11.2313375 1.41453914,11.710566 1.67596535,11.9056378 C1.7574955,11.963834 1.85878246,12.0240502 1.90302621,12.0313444 C1.90302621,12.0313444 1.82121732,12.4157511 1.98302599,12.4632373 C2.05161732,12.4795337 2.12841732,12.4831037 2.22149561,12.4778258 C2.18559989,12.5014128 2.15944353,12.5232956 2.15944353,12.5232956 C2.15944353,12.5232956 2.60869572,13.6895506 2.78664364,14.2542901 C2.96153048,14.8154596 3.19012171,15.3038444 3.99888662,15.1890021 C4.812384,15.0724555 5.13419255,14.8429288 5.46253903,14.7589677 C5.7892171,14.6751681 6.44911448,14.5932271 6.60271448,14.9594753 C6.64681821,15.0670234 6.78886841,15.4368416 6.7040011,15.9123458 C6.56180855,17.2718106 6.55707807,21.1490877 6.56848552,22.1221331 C6.573216,22.9787825 6.55540966,24.217668 6.41822566,25.5679801 C6.3135989,26.6591256 6.36744497,28.6454064 6.33975724,29.3231228 C6.33975724,29.3231228 6.33975724,29.3231228 6.33488772,29.330417 C5.99819255,29.5036094 4.13106207,29.8405278 4.26170483,30.4764979 C4.30260745,30.6715724 7.20222455,30.5714746 7.38685241,30.4055761 C7.58608552,30.2379705 7.47339145,29.6912346 7.47505986,29.5729794 C7.47505986,29.5475281 7.47505986,29.5163351 7.47339145,29.4966259 C7.51262566,28.8493265 7.40646952,28.0350425 7.84751338,25.6188819 C7.932384,25.1671227 8.13662566,24.5184294 8.358816,23.8931652 C8.69036359,23.8987516 9.02692303,23.8604219 9.34873159,23.8532819 C9.56104386,23.8604219 9.78156579,23.8770268 10.0054246,23.885871 L10.0054246,7.71643012 C9.57745986,7.5780008 9.11847062,7.59444778 8.65126841,7.73288077 L8.65126841,7.73288077 Z" id="path-21"></path>
        <path d="M3.57697986,6.90850827 L4.40522483,4.17172497 L5.18115641,6.90850827 L3.57697986,6.90850827 L3.57697986,6.90850827 Z M5.33628579,0.638504784 C5.23165903,0.325329105 5.10435641,0.277842963 4.8479371,0.277842963 L3.85134786,0.277842963 C3.61788579,0.277842963 3.47722593,0.325329105 3.38414566,0.584032901 L0.291833379,10.0459921 C0.27235531,10.1282428 0.255936,10.2174774 0.255936,10.2739667 C0.255936,10.4761798 0.398128552,10.5453947 0.634927448,10.5453947 L2.08383228,10.5453947 C2.45461738,10.5453947 2.54296386,10.3905147 2.62143228,10.113655 L2.94310179,9.01661421 L5.77565793,9.01661421 L6.08939917,10.113655 C6.16606014,10.4032403 6.25760772,10.5453947 6.63005793,10.5453947 L8.08244193,10.5453947 C8.31103448,10.5453947 8.45322372,10.4761798 8.45322372,10.2739667 C8.45322372,10.2174774 8.44181628,10.1282428 8.41385048,10.0459921 L5.33628579,0.638504784 L5.33628579,0.638504784 Z" id="path-23"></path>
        <path d="M2.45464386,6.55431065 L3.98187807,6.55431065 C4.49986097,6.55431065 4.80692193,6.88781549 4.80692193,7.44541497 C4.80692193,8.01015077 4.49986097,8.35824414 3.98187807,8.35824414 L2.45464386,8.35824414 L2.45464386,6.55431065 L2.45464386,6.55431065 Z M2.45464386,2.61682102 L3.86431448,2.61682102 C4.38062566,2.61682102 4.67614014,2.93372096 4.67614014,3.45314127 C4.67614014,3.97054519 4.38062566,4.29132364 3.86431448,4.29132364 L2.45464386,4.29132364 L2.45464386,2.61682102 L2.45464386,2.61682102 Z M0.647897379,10.6232475 L4.19920221,10.6232475 C5.94389628,10.6232475 7.07099255,9.43697179 7.07099255,7.60929707 C7.07099255,6.5707613 6.74431448,5.93851503 5.93401821,5.35903645 C6.64455724,4.78327846 6.94201821,4.14917006 6.94201821,3.24177302 C6.94201821,1.47787716 5.80170703,0.353679753 4.00803641,0.353679753 L0.647897379,0.353679753 C0.345566897,0.353679753 0.190437517,0.543165216 0.190437517,0.787434753 L0.190437517,10.1859225 C0.190437517,10.4391942 0.39954869,10.6232475 0.647897379,10.6232475 L0.647897379,10.6232475 Z" id="path-25"></path>
    </defs>
    <g id="Page-1" stroke="none" stroke-width="1" fill="none" fill-rule="evenodd">
        <g id="rvbar_v2.1" transform="translate(-849.000000, -2596.000000)">
            <g id="Group-19" transform="translate(117.000000, 2355.000000)">
                <g id="Bitmap" transform="translate(0.000000, 53.000000)">
                    <g id="https://snazzymaps.com/style/41142/wn" transform="translate(161.000000, -168.000000)">
                        <g id="logo_map_marker" transform="translate(571.000000, 356.000000)">
                            <path d="M57.3654596,63.468958 C65.6656296,56.9709282 71,46.8584186 71,35.5 C71,15.8938914 55.1061086,0 35.5,0 C15.8938914,0 0,15.8938914 0,35.5 C0,45.263008 3.94107521,54.1055286 10.3191014,60.5234375 L9.88867188,60.5234375 L32.84375,86.6855469 L57.3654596,63.468958 Z" id="Combined-Shape" fill="#403954"></path>
                            <g id="logo_white" transform="translate(12.000000, 22.000000)">
                                <g id="Group-3" transform="translate(10.924138, 0.000000)">
                                    <mask id="mask-2" fill="white">
                                        <use xlink:href="#path-1"></use>
                                    </mask>
                                    <g id="Clip-2"></g>
                                    <polygon id="Fill-1" fill="#FFFFFF" mask="url(#mask-2)" points="-1.4647349 -1.77232503 8.633088 -1.77232503 8.633088 12.1717901 -1.4647349 12.1717901"></polygon>
                                </g>
                                <g id="Group-6" transform="translate(18.537931, 11.018519)">
                                    <mask id="mask-4" fill="white">
                                        <use xlink:href="#path-3"></use>
                                    </mask>
                                    <g id="Clip-5"></g>
                                    <polygon id="Fill-4" fill="#FFFFFF" mask="url(#mask-4)" points="-1.51025214 -1.48274 8.67744993 -1.48274 8.67744993 12.4596673 -1.51025214 12.4596673"></polygon>
                                </g>
                                <g id="Group-9" transform="translate(33.434483, 11.018519)">
                                    <mask id="mask-6" fill="white">
                                        <use xlink:href="#path-5"></use>
                                    </mask>
                                    <g id="Clip-8"></g>
                                    <polygon id="Fill-7" fill="#FFFFFF" mask="url(#mask-6)" points="-1.40909793 -1.48274 8.69025103 -1.48274 8.69025103 12.4596673 -1.40909793 12.4596673"></polygon>
                                </g>
                                <g id="Group-12" transform="translate(17.544828, 0.000000)">
                                    <mask id="mask-8" fill="white">
                                        <use xlink:href="#path-7"></use>
                                    </mask>
                                    <g id="Clip-11"></g>
                                    <polygon id="Fill-10" fill="#FFFFFF" mask="url(#mask-8)" points="-1.45154648 -1.77232503 9.44989241 -1.77232503 9.44989241 12.1717901 -1.45154648 12.1717901"></polygon>
                                </g>
                                <g id="Group-15" transform="translate(40.055172, 11.018519)">
                                    <mask id="mask-10" fill="white">
                                        <use xlink:href="#path-9"></use>
                                    </mask>
                                    <g id="Clip-14"></g>
                                    <polygon id="Fill-13" fill="#FFFFFF" mask="url(#mask-10)" points="-1.60167724 -1.48274 9.49257931 -1.48274 9.49257931 12.4596673 -1.60167724 12.4596673"></polygon>
                                </g>
                                <g id="Group-18" transform="translate(33.434483, 0.000000)">
                                    <mask id="mask-12" fill="white">
                                        <use xlink:href="#path-11"></use>
                                    </mask>
                                    <g id="Clip-17"></g>
                                    <polygon id="Fill-16" fill="#FFFFFF" mask="url(#mask-12)" points="-1.3321589 -1.77232503 9.16564966 -1.77232503 9.16564966 12.1717901 -1.3321589 12.1717901"></polygon>
                                </g>
                                <g id="Group-21" transform="translate(26.482759, 11.018519)">
                                    <mask id="mask-14" fill="white">
                                        <use xlink:href="#path-13"></use>
                                    </mask>
                                    <g id="Clip-20"></g>
                                    <polygon id="Fill-19" fill="#FFFFFF" mask="url(#mask-14)" points="-1.64332138 -1.48274 7.92036414 -1.48274 7.92036414 12.4596673 -1.64332138 12.4596673"></polygon>
                                </g>
                                <g id="Group-24" transform="translate(25.489655, 0.000000)">
                                    <mask id="mask-16" fill="white">
                                        <use xlink:href="#path-15"></use>
                                    </mask>
                                    <g id="Clip-23"></g>
                                    <polygon id="Fill-22" fill="#FFFFFF" mask="url(#mask-16)" points="-1.44242648 -1.77232503 9.45914483 -1.77232503 9.45914483 12.1717901 -1.44242648 12.1717901"></polygon>
                                </g>
                                <g id="Group-27" transform="translate(26.151724, 22.404321)">
                                    <mask id="mask-18" fill="white">
                                        <use xlink:href="#path-17"></use>
                                    </mask>
                                    <g id="Clip-26"></g>
                                    <polygon id="Fill-25" fill="#FFFFFF" mask="url(#mask-18)" points="-1.408704 -1.55857679 8.69246897 -1.55857679 8.69246897 12.3818145 -1.408704 12.3818145"></polygon>
                                </g>
                                <g id="Group-30" transform="translate(10.924138, 22.404321)">
                                    <mask id="mask-20" fill="white">
                                        <use xlink:href="#path-19"></use>
                                    </mask>
                                    <g id="Clip-29"></g>
                                    <polygon id="Fill-28" fill="#FFFFFF" mask="url(#mask-20)" points="-1.4647349 -1.55857679 8.72616497 -1.55857679 8.72616497 12.3818145 -1.4647349 12.3818145"></polygon>
                                </g>
                                <g id="Group-33" transform="translate(0.000000, 1.469136)">
                                    <mask id="mask-22" fill="white">
                                        <use xlink:href="#path-21"></use>
                                    </mask>
                                    <g id="Clip-32"></g>
                                    <polygon id="Fill-31" fill="#FFFFFF" mask="url(#mask-22)" points="-1.63898052 -1.51628037 11.660597 -1.51628037 11.660597 32.4200739 -1.63898052 32.4200739"></polygon>
                                </g>
                                <g id="Group-36" transform="translate(17.544828, 22.404321)">
                                    <mask id="mask-24" fill="white">
                                        <use xlink:href="#path-23"></use>
                                    </mask>
                                    <g id="Clip-35"></g>
                                    <polygon id="Fill-34" fill="#FFFFFF" mask="url(#mask-24)" points="-1.39923641 -1.55857679 10.1083961 -1.55857679 10.1083961 12.3818145 -1.39923641 12.3818145"></polygon>
                                </g>
                                <g id="Group-39" transform="translate(10.924138, 11.018519)">
                                    <mask id="mask-26" fill="white">
                                        <use xlink:href="#path-25"></use>
                                    </mask>
                                    <g id="Clip-38"></g>
                                    <polygon id="Fill-37" fill="#FFFFFF" mask="url(#mask-26)" points="-1.4647349 -1.48274 8.72616497 -1.48274 8.72616497 12.4596673 -1.4647349 12.4596673"></polygon>
                                </g>
                            </g>
                        </g>
                    </g>
                </g>
            </g>
        </g>
    </g>
</svg>