<?xml version="1.0" encoding="UTF-8" standalone="no"?>
<svg width="145px" height="90px" viewBox="0 0 145 90" version="1.1" xmlns="http://www.w3.org/2000/svg" xmlns:xlink="http://www.w3.org/1999/xlink">
    <!-- Generator: sketchtool 3.8.3 (29802) - http://www.bohemiancoding.com/sketch -->
    <title>E801DEBB-9FF4-4D52-B0AD-FF795164EB62</title>
    <desc>Created with sketchtool.</desc>
    <defs>
        <path d="M7.41507,6.32113 L11.28384,6.32113 C13.00619,6.32113 14.24941,7.54648 14.24941,9.1593 C14.24941,10.77634 13.00619,11.9869 11.28384,11.9869 L7.41507,11.9869 L7.41507,6.32113 L7.41507,6.32113 Z M1.95719,28.14 L6.05291,28.14 C6.79304,28.14 7.41507,27.61437 7.41507,26.93958 L7.41507,18.14831 L11.59443,18.14831 C17.141,18.14831 21.07912,14.39282 21.07912,9.1593 C21.07912,3.94014 17.11158,0.17451 11.59443,0.17451 L1.95719,0.17451 C1.0439,0.17451 0.57528,0.68028 0.57528,1.34535 L0.57528,26.93958 C0.57528,27.61437 1.20697,28.14 1.95719,28.14 L1.95719,28.14 Z" id="path-1"></path>
        <path d="M14.37838,11.68394 L10.12462,11.68394 C8.56072,11.68394 7.65752,10.81056 7.65752,9.40183 C7.65752,7.98761 8.56072,7.12479 10.12462,7.12479 L14.37838,7.12479 L14.37838,11.68394 L14.37838,11.68394 Z M14.37838,22.7569 L9.76443,22.7569 C8.2102,22.7569 7.26749,21.80915 7.26749,20.27155 C7.26749,18.75338 8.2102,17.84535 9.76443,17.84535 L14.37838,17.84535 L14.37838,22.7569 L14.37838,22.7569 Z M9.69046,0.96296 C4.25275,0.96296 0.82277,4.0238 0.82277,8.82634 C0.82277,11.2969 1.72597,13.02338 3.87239,14.59099 C1.41496,16.16873 0.43778,17.89014 0.43778,20.71775 C0.43778,25.69394 3.82784,28.9238 9.11299,28.9238 L19.85139,28.9238 C20.59152,28.9238 21.21313,28.42268 21.21313,27.7331 L21.21313,2.14394 C21.21313,1.47887 20.73904,0.96296 19.85139,0.96296 L9.69046,0.96296 L9.69046,0.96296 Z" id="path-3"></path>
        <path d="M11.4469,12.79014 L7.5831,12.79014 L7.5831,7.12479 L11.4469,7.12479 C13.1692,7.12479 14.4129,8.35479 14.4129,9.95239 C14.4129,11.56479 13.1692,12.79014 11.4469,12.79014 L11.4469,12.79014 Z M11.7629,0.96296 L2.1101,0.96296 C1.2027,0.96296 0.7433,1.47887 0.7433,2.14394 L0.7433,27.7331 C0.7433,28.42268 1.37,28.9238 2.1101,28.9238 L6.2109,28.9238 C6.9657,28.9238 7.5831,28.42268 7.5831,27.7331 L7.5831,18.9469 L11.7629,18.9469 C17.3044,18.9469 21.2518,15.1762 21.2518,9.95239 C21.2518,4.72859 17.2603,0.96296 11.7629,0.96296 L11.7629,0.96296 Z" id="path-5"></path>
        <path d="M8.89062,19.28958 C8.6292,20.39113 7.99751,21.99803 5.88555,21.99803 L4.75539,21.99803 C3.93625,21.99803 3.59581,22.74718 3.59581,23.37761 L3.59581,26.76085 C3.59581,27.49521 3.97575,28.14 4.75539,28.14 L7.3759,28.14 C10.92903,28.14 13.18893,25.68423 14.24974,23.21366 L23.38894,1.5338 C23.50704,1.3107 23.54655,1.08211 23.54655,0.91352 C23.54655,0.36296 23.11786,0.17451 22.41177,0.17451 L17.56583,0.17451 C16.43146,0.17451 16.20409,0.59577 15.92754,1.34535 L12.29581,11.58507 L8.20471,1.34535 C7.88403,0.59577 7.68187,0.17451 6.54667,0.17451 L1.78983,0.17451 C1.09383,0.17451 0.61512,0.36296 0.61512,0.91352 C0.61512,1.08211 0.65967,1.3107 0.77314,1.5338 L8.89062,19.28958 L8.89062,19.28958 Z" id="path-7"></path>
        <path d="M15.6219,14.59099 L22.9262,2.33746 C23.0783,2.09915 23.1577,1.87056 23.1577,1.70704 C23.1577,1.19113 22.6589,0.96296 21.9486,0.96296 L16.9997,0.96296 C15.8539,0.96296 15.6959,1.42944 15.3458,2.14394 L11.912,8.86099 L8.4472,2.14394 C8.0475,1.42944 7.9239,0.96296 6.7896,0.96296 L1.918,0.96296 C1.2127,0.96296 0.7147,1.19113 0.7147,1.70704 C0.7147,1.87056 0.7386,2.09915 0.8925,2.33746 L8.2005,14.59099 L0.3885,27.54972 C0.2356,27.78761 0.1616,28.01577 0.1616,28.1793 C0.1616,28.67028 0.7147,28.9238 1.4006,28.9238 L6.0931,28.9238 C7.238,28.9238 7.5444,28.45732 7.9239,27.7331 L11.912,20.32141 L15.8539,27.7331 C16.244,28.45732 16.5546,28.9238 17.6898,28.9238 L22.4664,28.9238 C23.1577,28.9238 23.6755,28.67028 23.6755,28.2093 C23.6755,28.01577 23.5919,27.78761 23.4389,27.54972 L15.6219,14.59099 L15.6219,14.59099 Z" id="path-9"></path>
        <path d="M2.3426,28.14 L5.8167,28.14 C6.7539,28.14 7.2179,27.64901 7.5386,27.14789 L15.854,12.89451 L15.854,26.93958 C15.854,27.61437 16.4403,28.14 17.1712,28.14 L21.3317,28.14 C22.0613,28.14 22.6879,27.61437 22.6879,26.93958 L22.6879,1.34535 C22.6879,0.68028 22.2193,0.17451 21.3317,0.17451 L17.8866,0.17451 C16.9489,0.17451 16.4803,0.62577 16.1697,1.1569 L7.8097,15.40986 L7.8097,1.34535 C7.8097,0.68028 7.1834,0.17451 6.4429,0.17451 L2.3426,0.17451 C1.6075,0.17451 0.9758,0.68028 0.9758,1.34535 L0.9758,26.93958 C0.9758,27.61437 1.4389,28.14 2.3426,28.14 L2.3426,28.14 Z" id="path-11"></path>
        <path d="M17.75606,7.08 C18.57562,7.08 18.92614,6.34099 18.92614,5.71056 L18.92614,2.33746 C18.92614,1.58324 18.53107,0.96296 17.75606,0.96296 L1.39249,0.96296 C0.77088,0.96296 0.0358,1.47887 0.0358,2.14394 L0.0358,27.7331 C0.0358,28.42268 0.68725,28.9238 1.39249,28.9238 L17.75606,28.9238 C18.50165,28.9238 18.92614,28.28873 18.92614,27.54972 L18.92614,24.17113 C18.92614,23.49634 18.50165,22.79197 17.75606,22.79197 L6.86551,22.79197 L6.86551,17.89014 L15.99883,17.89014 C16.7793,17.89014 17.16429,17.17056 17.16429,16.5262 L17.16429,13.12775 C17.16429,12.35831 16.81377,11.76296 15.99883,11.76296 L6.86551,11.76296 L6.86551,7.08 L17.75606,7.08 L17.75606,7.08 Z" id="path-13"></path>
        <path d="M14.30167,11.4807 L22.87348,1.3107 C23.066,1.08211 23.1698,0.8738 23.1698,0.68028 C23.1698,0.36296 22.90794,0.17451 22.31113,0.17451 L16.5767,0.17451 C15.67896,0.17451 15.44149,0.17451 14.53367,1.2562 L7.40261,10.0669 L7.40261,1.34535 C7.40261,0.68028 6.92894,0.17451 6.01607,0.17451 L2.00945,0.17451 C1.10625,0.17451 0.64267,0.68028 0.64267,1.34535 L0.64267,26.93958 C0.64267,27.61437 1.25881,28.14 2.00945,28.14 L6.01607,28.14 C6.77596,28.14 7.40261,27.61437 7.40261,26.93958 L7.40261,19.35887 L9.73228,16.66014 L15.481,26.93958 C15.75209,27.45549 16.15262,28.14 17.39584,28.14 L22.47841,28.14 C22.87348,28.14 23.5745,28.14 23.5745,27.54465 C23.5745,27.34141 23.49,27.0638 23.253,26.67634 L14.30167,11.4807 L14.30167,11.4807 Z" id="path-15"></path>
        <path d="M11.4531,12.57352 L7.59358,12.57352 L7.59358,6.91873 L11.4531,6.91873 C13.17503,6.91873 14.41867,8.14324 14.41867,9.74085 C14.41867,11.35831 13.17503,12.57352 11.4531,12.57352 L11.4531,12.57352 Z M11.76412,0.75648 L2.1067,0.75648 C1.20812,0.75648 0.74454,1.26732 0.74454,1.92732 L0.74454,27.536338 C0.74454,28.2060563 1.37623,28.711831 2.1067,28.711831 L6.21713,28.711831 C6.95222,28.711831 7.59358,28.2060563 7.59358,27.536338 L7.59358,18.73535 L11.76412,18.73535 C17.3111,18.73535 21.2585,14.97479 21.2585,9.74085 C21.2585,4.53732 17.26571,0.75648 11.76412,0.75648 L11.76412,0.75648 Z" id="path-17"></path>
        <path d="M11.75246,22.550845 L7.41507,22.550845 L7.41507,16.90451 L11.75246,16.90451 C13.46472,16.90451 14.52091,18.11 14.52091,19.732113 C14.52091,21.334366 13.46472,22.550845 11.75246,22.550845 L11.75246,22.550845 Z M12.05339,10.72831 L7.41507,10.72831 L7.41507,6.88324 L18.55233,6.88324 C19.37148,6.88324 19.71696,6.13958 19.71696,5.50451 L19.71696,2.13563 C19.71696,1.38606 19.33197,0.75648 18.55233,0.75648 L1.95719,0.75648 C1.0439,0.75648 0.57528,1.26732 0.57528,1.92732 L0.57528,27.536338 C0.57528,28.2060563 1.20697,28.711831 1.95719,28.711831 L12.05339,28.711831 C17.92568,28.711831 21.36029,24.947042 21.36029,19.732113 C21.36029,14.50408 17.87651,10.72831 12.05339,10.72831 L12.05339,10.72831 Z" id="path-19"></path>
        <path d="M26.13404,21.05423 C24.79668,21.39648 23.52825,21.13366 22.38338,20.12169 C21.24355,19.11944 20.40928,18.03817 21.01659,15.5131 C21.62812,12.98254 18.48981,10.82972 17.57232,15.12606 C16.64936,19.44183 19.18581,20.8907 20.78459,21.96225 C22.38338,23.04352 23.07938,24.57648 20.78459,24.57648 C18.48981,24.57648 15.92394,24.23423 14.09316,21.20803 C11.63068,17.15 13.37278,12.36268 14.88751,10.36789 C16.42745,8.3638 18.25823,6.36437 21.47051,5.14408 C24.67312,3.91873 24.46591,2.7031 23.68628,1.37887 C23.00036,0.20296 20.09868,1.22 17.48826,2.91141 C14.88751,4.60831 10.79683,7.60493 9.582609,12.4569 C8.132188,18.29592 10.15504,21.56042 11.14735,22.97423 C12.36619,24.66606 14.05365,26.93296 18.18888,28.26268 C21.69242,29.41873 22.23081,29.11577 21.08552,30.66394 C19.9457,32.19225 17.94217,35.01479 20.1777,35.26282 C21.4558,35.40183 22.84233,32.81718 23.52825,32.58901 C23.61735,32.54423 23.70603,32.52944 23.80438,32.48972 C24.22425,33.12944 24.74246,33.69014 25.33928,34.07211 C25.34432,34.37 25.31448,34.73718 25.31448,35.15887 C25.31448,36.72141 23.93299,37.34169 22.59562,37.00408 C20.735,36.56761 19.04754,36.42352 15.12917,37.65901 C11.6601,38.73563 11.42348,39.08803 10.81154,38.10056 C10.19959,37.09324 8.871899,34.65775 9.335899,33.27817 C9.370362,33.12944 9.390116,33.04535 9.370362,32.96085 C9.760391,32.5738 9.750304,32.14239 9.163159,31.98859 C9.163159,31.98859 9.622536,31.77521 9.938174,30.64408 C10.27357,29.51803 10.07183,29.37944 10.382,29.16056 C10.66359,28.93239 12.02071,28.60028 12.82977,28.17352 C13.64891,27.73197 13.4913,26.19901 11.9812,26.55141 C10.46606,26.93296 9.449797,27.72183 9.266551,27.66268 C9.104319,27.5731 8.378899,26.63085 8.181362,26.50155 C7.983826,26.36761 7.056246,24.87944 6.685971,24.10535 C6.311072,23.34141 5.876913,22.07169 4.998507,22.69662 C4.134391,23.34141 4.253333,23.82732 4.75642,24.74042 C5.274638,25.67338 5.817652,26.85352 5.511681,26.75465 C5.20571,26.66042 5.053145,26.44197 4.283174,25.76718 C3.621638,25.2069 2.678928,23.14789 1.593739,23.6338 C0.9174928,23.94141 0.8334348,25.11225 1.948884,26.19901 C2.985319,27.2207 3.75529,28.25296 3.78429,28.33746 C3.833884,28.43634 2.861754,28.14394 2.678928,28.03958 C2.501565,27.92549 1.198667,26.89366 0.651029,26.93296 C0.1033913,26.96761 -0.4694638,27.92549 0.883029,28.93239 C1.860203,29.66169 2.546116,30.10324 3.33542,30.45521 C3.676275,30.57944 4.273087,31.88423 5.062812,32.41535 C5.309101,32.5738 5.615072,32.73775 5.748725,32.75761 C5.748725,32.75761 5.501594,33.80423 5.990391,33.93352 C6.197594,33.97789 6.429594,33.98761 6.710768,33.97324 C6.602333,34.03746 6.523319,34.09704 6.523319,34.09704 C6.523319,34.09704 7.880435,37.27239 8.417986,38.81 C8.94629,40.33789 9.636826,41.66761 12.07997,41.35493 C14.53741,41.03761 15.50954,40.41268 16.50142,40.18408 C17.48826,39.95592 19.4817,39.73282 19.9457,40.73 C20.07893,41.02282 20.50804,42.02972 20.25167,43.32437 C19.82213,47.02577 19.80784,57.58239 19.8423,60.23169 C19.85659,62.56408 19.8028,65.93718 19.38839,69.61366 C19.07233,72.58451 19.23499,77.992535 19.15135,79.837746 C19.15135,79.837746 19.15135,79.837746 19.13664,79.857606 C18.11954,80.329155 12.47925,81.246479 12.8739,82.978028 C12.99746,83.509155 21.75672,83.23662 22.31445,82.78493 C22.9163,82.328592 22.57587,80.84 22.58091,80.518028 C22.58091,80.448732 22.58091,80.363803 22.57587,80.310141 C22.69439,78.547746 22.37371,76.330704 23.70603,69.75225 C23.96241,68.52225 24.57939,66.75606 25.25059,65.05366 C26.25214,65.06887 27.26883,64.96451 28.24096,64.94507 C28.88232,64.96451 29.54848,65.00972 30.22472,65.0338 L30.22472,21.00944 C28.93191,20.63254 27.54538,20.67732 26.13404,21.05423 L26.13404,21.05423 Z" id="path-21"></path>
        <path d="M10.80546,18.80972 L13.30745,11.35831 L15.65141,18.80972 L10.80546,18.80972 L10.80546,18.80972 Z M16.12003,1.73845 C15.80397,0.88577 15.41941,0.75648 14.64481,0.75648 L11.63428,0.75648 C10.92903,0.75648 10.50412,0.88577 10.22294,1.59014 L0.88158,27.352113 C0.82274,27.576056 0.77314,27.819014 0.77314,27.972817 C0.77314,28.5233803 1.20268,28.711831 1.91801,28.711831 L6.29491,28.711831 C7.41499,28.711831 7.68187,28.2901408 7.91891,27.536338 L8.89062,24.549437 L17.4473,24.549437 L18.39506,27.536338 C18.62664,28.3247887 18.90319,28.711831 20.0283,28.711831 L24.41571,28.711831 C25.10625,28.711831 25.53578,28.5233803 25.53578,27.972817 C25.53578,27.819014 25.50132,27.576056 25.41684,27.352113 L16.12003,1.73845 L16.12003,1.73845 Z" id="path-23"></path>
        <path d="M7.41507,17.84535 L12.02859,17.84535 C13.59333,17.84535 14.52091,18.75338 14.52091,20.27155 C14.52091,21.80915 13.59333,22.7569 12.02859,22.7569 L7.41507,22.7569 L7.41507,17.84535 L7.41507,17.84535 Z M7.41507,7.12479 L11.67345,7.12479 C13.23314,7.12479 14.12584,7.98761 14.12584,9.40183 C14.12584,10.81056 13.23314,11.68394 11.67345,11.68394 L7.41507,11.68394 L7.41507,7.12479 L7.41507,7.12479 Z M1.95719,28.9238 L12.68509,28.9238 C17.95552,28.9238 21.36029,25.69394 21.36029,20.71775 C21.36029,17.89014 20.37345,16.16873 17.92568,14.59099 C20.0721,13.02338 20.97068,11.2969 20.97068,8.82634 C20.97068,4.0238 17.52599,0.96296 12.10761,0.96296 L1.95719,0.96296 C1.0439,0.96296 0.57528,1.47887 0.57528,2.14394 L0.57528,27.7331 C0.57528,28.42268 1.20697,28.9238 1.95719,28.9238 L1.95719,28.9238 Z" id="path-25"></path>
    </defs>
    <g id="Page-1" stroke="none" stroke-width="1" fill="none" fill-rule="evenodd">
        <g id="rvbar_v2.1" transform="translate(-259.000000, -183.000000)">
            <g id="Group-22" transform="translate(259.000000, 144.000000)">
                <g id="logo_white" transform="translate(0.000000, 39.000000)">
                    <g id="Group-3" transform="translate(33.000000, 0.000000)">
                        <mask id="mask-2" fill="white">
                            <use xlink:href="#path-1"></use>
                        </mask>
                        <g id="Clip-2"></g>
                        <polygon id="Fill-1" fill="#FFFFFF" mask="url(#mask-2)" points="-4.42472 -4.82549 26.07912 -4.82549 26.07912 33.14 -4.42472 33.14"></polygon>
                    </g>
                    <g id="Group-6" transform="translate(56.000000, 30.000000)">
                        <mask id="mask-4" fill="white">
                            <use xlink:href="#path-3"></use>
                        </mask>
                        <g id="Clip-5"></g>
                        <polygon id="Fill-4" fill="#FFFFFF" mask="url(#mask-4)" points="-4.56222 -4.03704 26.21313 -4.03704 26.21313 33.9238 -4.56222 33.9238"></polygon>
                    </g>
                    <g id="Group-9" transform="translate(101.000000, 30.000000)">
                        <mask id="mask-6" fill="white">
                            <use xlink:href="#path-5"></use>
                        </mask>
                        <g id="Clip-8"></g>
                        <polygon id="Fill-7" fill="#FFFFFF" mask="url(#mask-6)" points="-4.25665 -4.03704 26.2518 -4.03704 26.2518 33.9238 -4.25665 33.9238"></polygon>
                    </g>
                    <g id="Group-12" transform="translate(53.000000, 0.000000)">
                        <mask id="mask-8" fill="white">
                            <use xlink:href="#path-7"></use>
                        </mask>
                        <g id="Clip-11"></g>
                        <polygon id="Fill-10" fill="#FFFFFF" mask="url(#mask-8)" points="-4.38488 -4.82549 28.54655 -4.82549 28.54655 33.14 -4.38488 33.14"></polygon>
                    </g>
                    <g id="Group-15" transform="translate(121.000000, 30.000000)">
                        <mask id="mask-10" fill="white">
                            <use xlink:href="#path-9"></use>
                        </mask>
                        <g id="Clip-14"></g>
                        <polygon id="Fill-13" fill="#FFFFFF" mask="url(#mask-10)" points="-4.8384 -4.03704 28.6755 -4.03704 28.6755 33.9238 -4.8384 33.9238"></polygon>
                    </g>
                    <g id="Group-18" transform="translate(101.000000, 0.000000)">
                        <mask id="mask-12" fill="white">
                            <use xlink:href="#path-11"></use>
                        </mask>
                        <g id="Clip-17"></g>
                        <polygon id="Fill-16" fill="#FFFFFF" mask="url(#mask-12)" points="-4.02423 -4.82549 27.6879 -4.82549 27.6879 33.14 -4.02423 33.14"></polygon>
                    </g>
                    <g id="Group-21" transform="translate(80.000000, 30.000000)">
                        <mask id="mask-14" fill="white">
                            <use xlink:href="#path-13"></use>
                        </mask>
                        <g id="Clip-20"></g>
                        <polygon id="Fill-19" fill="#FFFFFF" mask="url(#mask-14)" points="-4.9642 -4.03704 23.9261 -4.03704 23.9261 33.9238 -4.9642 33.9238"></polygon>
                    </g>
                    <g id="Group-24" transform="translate(77.000000, 0.000000)">
                        <mask id="mask-16" fill="white">
                            <use xlink:href="#path-15"></use>
                        </mask>
                        <g id="Clip-23"></g>
                        <polygon id="Fill-22" fill="#FFFFFF" mask="url(#mask-16)" points="-4.35733 -4.82549 28.5745 -4.82549 28.5745 33.14 -4.35733 33.14"></polygon>
                    </g>
                    <g id="Group-27" transform="translate(79.000000, 61.000000)">
                        <mask id="mask-18" fill="white">
                            <use xlink:href="#path-17"></use>
                        </mask>
                        <g id="Clip-26"></g>
                        <polygon id="Fill-25" fill="#FFFFFF" mask="url(#mask-18)" points="-4.25546 -4.24352 26.2585 -4.24352 26.2585 33.711831 -4.25546 33.711831"></polygon>
                    </g>
                    <g id="Group-30" transform="translate(33.000000, 61.000000)">
                        <mask id="mask-20" fill="white">
                            <use xlink:href="#path-19"></use>
                        </mask>
                        <g id="Clip-29"></g>
                        <polygon id="Fill-28" fill="#FFFFFF" mask="url(#mask-20)" points="-4.42472 -4.24352 26.36029 -4.24352 26.36029 33.711831 -4.42472 33.711831"></polygon>
                    </g>
                    <g id="Group-33" transform="translate(0.000000, 4.000000)">
                        <mask id="mask-22" fill="white">
                            <use xlink:href="#path-21"></use>
                        </mask>
                        <g id="Clip-32"></g>
                        <polygon id="Fill-31" fill="#FFFFFF" mask="url(#mask-22)" points="-4.951087 -4.12836 35.22472 -4.12836 35.22472 88.269781 -4.951087 88.269781"></polygon>
                    </g>
                    <g id="Group-36" transform="translate(53.000000, 61.000000)">
                        <mask id="mask-24" fill="white">
                            <use xlink:href="#path-23"></use>
                        </mask>
                        <g id="Clip-35"></g>
                        <polygon id="Fill-34" fill="#FFFFFF" mask="url(#mask-24)" points="-4.22686 -4.24352 30.53578 -4.24352 30.53578 33.711831 -4.22686 33.711831"></polygon>
                    </g>
                    <g id="Group-39" transform="translate(33.000000, 30.000000)">
                        <mask id="mask-26" fill="white">
                            <use xlink:href="#path-25"></use>
                        </mask>
                        <g id="Clip-38"></g>
                        <polygon id="Fill-37" fill="#FFFFFF" mask="url(#mask-26)" points="-4.42472 -4.03704 26.36029 -4.03704 26.36029 33.9238 -4.42472 33.9238"></polygon>
                    </g>
                </g>
            </g>
        </g>
    </g>
</svg>