<?xml version="1.0" encoding="UTF-8" standalone="no"?>
<svg width="38px" height="23px" viewBox="0 0 38 23" version="1.1" xmlns="http://www.w3.org/2000/svg" xmlns:xlink="http://www.w3.org/1999/xlink">
    <!-- Generator: sketchtool 3.8.3 (29802) - http://www.bohemiancoding.com/sketch -->
    <title>C344334B-B283-4F23-A93A-F9E16CD17B5C</title>
    <desc>Created with sketchtool.</desc>
    <defs></defs>
    <g id="Page-1" stroke="none" stroke-width="1" fill="none" fill-rule="evenodd">
        <g id="rvbar_v2.1" transform="translate(-1219.000000, -458.000000)" fill="#FFFFFF">
            <g id="Group-16" transform="translate(278.000000, 458.000000)">
                <g id="next_event" transform="translate(658.000000, 0.000000)">
                    <g id="scissors_icon" transform="translate(297.435376, 27.731515) scale(-1, 1) translate(-297.435376, -27.731515) translate(269.435376, 0.231515)">
                        <path d="M27.476656,12.7444863 C27.476656,12.7444863 36.3563853,15.7410502 37.849656,16.0867143 C39.3415,16.433348 40.4448083,16.0484149 41.8843402,14.6963009 L31.5075357,10.6341413 L27.476656,12.7444863 L27.476656,12.7444863 Z" id="Shape"></path>
                        <polygon id="Shape" points="19.9166165 9.77555623 21.5425695 7.07278267 19.6931015 6.2801307 18.4604398 9.14094985"></polygon>
                        <path d="M17.3190865,14.2459195 C16.0436241,12.1535122 12.858297,11.726886 10.1133421,13.3136444 C7.3132218,14.9319149 6.03633271,18.0254392 7.25805639,20.2240182 C8.48168233,22.4235669 11.7411974,22.8947948 14.5413177,21.2750699 C15.9732406,20.447997 17.0042632,19.2330821 17.5083609,17.947386 C18.3957632,16.796465 20.7155639,15.1859514 20.7155639,15.1859514 L18.7162932,12.8836246 C18.5798064,12.9670106 17.8189041,13.564772 17.3190865,14.2459195 L17.3190865,14.2459195 Z M13.5435846,19.4822705 C12.0056109,20.3704286 10.2155883,20.1110593 9.54409211,18.9029316 C8.87307143,17.697228 9.57405263,15.996541 11.1120263,15.108383 C12.6480977,14.2202249 14.4390714,14.4791094 15.1115188,15.6862675 C15.783015,16.8943951 15.0801316,18.5926581 13.5435846,19.4822705 L13.5435846,19.4822705 Z" id="Shape"></path>
                        <path d="M15.4710451,8.07196049 L15.4696184,8.08020213 C15.7920508,7.776231 16.307562,7.85331459 16.7122669,7.95027508 C17.5597218,8.15243769 17.8160508,8.83940274 17.8160508,8.83940274 L19.0482368,5.9621003 C19.0482368,5.9621003 17.4955207,5.02982523 16.2585789,3.14103495 L16.2571523,3.14636778 C15.4662895,1.77680091 13.9311692,0.657392097 12.0127444,0.234644377 C8.86784023,-0.455714286 5.89509023,0.986088146 5.3710188,3.45664134 C4.84742293,5.92719453 6.9746203,8.49082979 10.1195244,9.18264286 C12.1991654,9.63981155 14.1998628,9.16082675 15.4710451,8.07196049 L15.4710451,8.07196049 Z M7.93858835,4.02192097 C8.22487782,2.66544377 9.85843985,1.87230699 11.5861635,2.2523921 C13.3134117,2.6315076 14.4818722,4.04034347 14.1936805,5.39682067 C13.907391,6.75329787 12.2738289,7.54594985 10.5461053,7.16537994 C8.81885714,6.78723404 7.65087218,5.37888298 7.93858835,4.02192097 L7.93858835,4.02192097 Z" id="Shape"></path>
                        <path d="M38.7660677,3.18709119 C37.2109737,3.53081611 22.4171316,7.22307143 22.4171316,7.22307143 L19.306468,12.2931353 L21.4160695,14.666728 L42.1791898,4.70743161 C42.1791898,4.70743161 40.3187838,2.84385106 38.7660677,3.18709119 L38.7660677,3.18709119 Z M24.1624511,11.0980973 C23.5033195,11.0661003 22.9958929,10.4940334 23.0268045,9.82355167 C23.0596184,9.1521003 23.6193571,8.63433131 24.2789643,8.66729787 C24.9366692,8.69977964 25.445047,9.2708769 25.4127086,9.94232827 C25.3794192,10.6132948 24.820156,11.1315486 24.1624511,11.0980973 L24.1624511,11.0980973 Z" id="Shape"></path>
                    </g>
                </g>
            </g>
        </g>
    </g>
</svg>