<?xml version="1.0" encoding="UTF-8" standalone="no"?>
<svg width="39px" height="41px" viewBox="0 0 39 41" version="1.1" xmlns="http://www.w3.org/2000/svg" xmlns:xlink="http://www.w3.org/1999/xlink">
    <!-- Generator: sketchtool 3.8.3 (29802) - http://www.bohemiancoding.com/sketch -->
    <title>57F66629-9E96-4DB7-8062-FA01A34A026E</title>
    <desc>Created with sketchtool.</desc>
    <defs></defs>
    <g id="Page-1" stroke="none" stroke-width="1" fill="none" fill-rule="evenodd">
        <g id="rvbar_v2.1" transform="translate(-1147.000000, -341.000000)" fill="#FFFFFF">
            <g id="Group-23" transform="translate(893.000000, 337.000000)">
                <g id="VK_icon" transform="translate(254.000000, 4.000000)">
                    <path d="M0,20.0994835 C0,8.99884473 8.59514456,0 19.1977939,0 C29.8004432,0 38.3955877,8.99884473 38.3955877,20.0994835 C38.3955877,31.2001223 29.8004432,40.198967 19.1977939,40.198967 C8.59514456,40.198967 0,31.2001223 0,20.0994835 Z M18.4794998,27.5590337 L19.884522,27.5590337 C19.884522,27.5590337 20.3088264,27.5115064 20.5257796,27.2742903 C20.7251845,27.0562534 20.7188108,26.6470977 20.7188108,26.6470977 C20.7188108,26.6470977 20.6913295,24.7311995 21.5661781,24.4490638 C22.4289415,24.1709658 23.5365533,26.300695 24.7104678,27.1196793 C25.5982293,27.7392169 26.2728452,27.6036168 26.2728452,27.6036168 L29.4120857,27.5590337 C29.4120857,27.5590337 31.0541754,27.4560718 30.2755113,26.143981 C30.2117746,26.0368132 29.8219045,25.173414 27.9413402,23.3995089 C25.972786,21.5428306 26.2366726,21.8432201 28.6077614,18.6316343 C30.0517706,16.6757794 30.6289604,15.4817919 30.4485938,14.9704315 C30.2767529,14.4832132 29.2145846,14.6119156 29.2145846,14.6119156 L25.6800937,14.634123 C25.6800937,14.634123 25.4178627,14.5978677 25.2236726,14.715971 C25.0337041,14.8314666 24.9117765,15.1013209 24.9117765,15.1013209 C24.9117765,15.1013209 24.352135,16.6147089 23.6063326,17.9019846 C22.0324495,20.6178562 21.4030286,20.7616158 21.1457641,20.5927045 C20.5472183,20.1996156 20.6967927,19.0138718 20.6967927,18.1712501 C20.6967927,15.5391612 21.0896426,14.4417425 19.9317865,14.157672 C19.5476279,14.0634586 19.2646203,14.0011263 18.2819987,13.9909478 C17.0207566,13.9779094 15.953539,13.9949014 15.3491162,14.2957957 C14.9469955,14.4959152 14.6367549,14.9417468 14.8258129,14.9674032 C15.0594866,14.999032 15.5884186,15.1125088 15.8688602,15.5002981 C16.2311662,16.0012278 16.2185017,17.1257329 16.2185017,17.1257329 C16.2185017,17.1257329 16.4266807,20.2240943 15.7324471,20.6088554 C15.2560772,20.8728214 14.6024861,20.3339539 13.1992849,17.8699352 C12.4804671,16.6078111 11.9375461,15.2125264 11.9375461,15.2125264 C11.9375461,15.2125264 11.8330014,14.9518411 11.6462611,14.8122874 C11.4197888,14.6432079 11.1033401,14.589624 11.1033401,14.589624 L7.74449765,14.6119156 C7.74449765,14.6119156 7.24039813,14.6262158 7.05514776,14.8490475 C6.89034281,15.0474005 7.04198654,15.457145 7.04198654,15.457145 C7.04198654,15.457145 9.671416,21.70905 12.6489969,24.8596495 C15.3794946,27.7486383 18.4794998,27.5590337 18.4794998,27.5590337 Z" id="Combined-Shape"></path>
                </g>
            </g>
        </g>
    </g>
</svg>